<?xml version="1.0" encoding="UTF-8" standalone="no"?>
<svg
   xmlns:dc="http://purl.org/dc/elements/1.1/"
   xmlns:cc="http://creativecommons.org/ns#"
   xmlns:rdf="http://www.w3.org/1999/02/22-rdf-syntax-ns#"
   xmlns:svg="http://www.w3.org/2000/svg"
   xmlns="http://www.w3.org/2000/svg"
   xmlns:sodipodi="http://sodipodi.sourceforge.net/DTD/sodipodi-0.dtd"
   xmlns:inkscape="http://www.inkscape.org/namespaces/inkscape"
   width="87.137192mm"
   height="85.324982mm"
   viewBox="0 0 87.137192 85.324982"
   version="1.1"
   id="svg8"
   sodipodi:docname="logo.svg"
   inkscape:version="1.0.2 (e86c870879, 2021-01-15)">
  <sodipodi:namedview
     pagecolor="#ffffff"
     bordercolor="#666666"
     borderopacity="1"
     objecttolerance="10"
     gridtolerance="10"
     guidetolerance="10"
     inkscape:pageopacity="0"
     inkscape:pageshadow="2"
     inkscape:window-width="1916"
     inkscape:window-height="1035"
     id="namedview17"
     showgrid="false"
     inkscape:zoom="2.0702574"
     inkscape:cx="111.69808"
     inkscape:cy="145.7124"
     inkscape:window-x="0"
     inkscape:window-y="0"
     inkscape:window-maximized="1"
     inkscape:current-layer="svg8"
     inkscape:document-rotation="0" />
  <defs
     id="defs2" />
  <metadata
     id="metadata5">
    <rdf:RDF>
      <cc:Work
         rdf:about="">
        <dc:format>image/svg+xml</dc:format>
        <dc:type
           rdf:resource="http://purl.org/dc/dcmitype/StillImage" />
        <dc:title />
      </cc:Work>
    </rdf:RDF>
  </metadata>
  <path
     style="fill:none;stroke:#000000;stroke-width:0.79375;stroke-linecap:butt;stroke-linejoin:miter;stroke-miterlimit:4;stroke-dasharray:none;stroke-dashoffset:0;stroke-opacity:1"
     d="m 31.664759,5.84663 -21.166667,38.36458 31.75,15.875 7.9375,-22.48958 30.427083,29.10416"
     id="path917" />
  <text
     xml:space="preserve"
     style="font-size:10.5833px;line-height:1.25;font-family:'RobotoMono Nerd Font Mono';-inkscape-font-specification:'RobotoMono Nerd Font Mono';stroke-width:0.264583"
     x="3.0440648"
     y="85.221626"
     id="text937"><tspan
       id="tspan935"
       x="3.0440648"
       y="85.221626"
       style="stroke-width:0.264583">SCIENCES.RE</tspan></text>
  <circle
     style="fill:#fff6d5;stroke:#000000;stroke-width:0.79375;stroke-linecap:square;stroke-miterlimit:4;stroke-dasharray:none;stroke-dashoffset:0"
     id="path835-3-6"
     cx="10.472268"
     cy="43.468716"
     r="10.075394" />
  <circle
     style="fill:#d5ffd5;stroke:#000000;stroke-width:0.79375;stroke-linecap:square;stroke-miterlimit:4;stroke-dasharray:none;stroke-dashoffset:0"
     id="path835-3"
     cx="50.796329"
     cy="37.536068"
     r="10.075394" />
  <g
     id="g2321"
     transform="rotate(-15,49.985744,37.57148)">
    <g
       id="g1653"
       transform="matrix(0.13954225,0.05573332,-0.05573332,0.13954225,46.605847,27.772276)"
       style="stroke-width:0;stroke-miterlimit:4;stroke-dasharray:none">
      <path
         d="m 50.276,87.529 c 0,0 0,0 0,0 l -0.405,-0.002 -0.367,0.002 c -3.375,0 -20.428,-0.362 -25.485,-7.503 -0.461,-0.539 -1.815,-2.783 0.169,-9.069 0.924,-2.927 3.905,-10.654 7.061,-18.837 3.627,-9.402 7.731,-20.042 8.486,-22.901 V 17.884 c -0.088,-0.35 -0.419,-1.547 -0.984,-2.354 -0.327,-0.467 -1.007,-1.438 -0.559,-2.3 0.263,-0.504 0.776,-0.759 1.526,-0.759 h 20.564 c 0.75,0 1.263,0.255 1.525,0.759 0.448,0.861 -0.231,1.833 -0.559,2.3 -0.564,0.807 -0.896,2.004 -0.983,2.354 v 11.335 c 0.755,2.861 4.862,13.509 8.491,22.918 3.153,8.175 6.132,15.896 7.055,18.82 1.986,6.286 0.632,8.53 0.17,9.069 -5.056,7.141 -22.293,7.503 -25.705,7.503 z m -0.406,-2.002 0.405,0.002 v 0 c 1.991,0 19.564,-0.188 24.101,-6.697 l 0.111,-0.134 h -10e-4 c -0.007,0 1.155,-1.638 -0.582,-7.14 C 73,68.694 70.032,61.001 66.89,52.857 63.008,42.792 58.994,32.384 58.295,29.587 l -0.03,-0.242 0.023,-11.798 c 0.017,-0.074 0.408,-1.805 1.262,-3.077 H 40.449 c 0.853,1.271 1.245,3.001 1.262,3.076 l 0.024,0.218 -0.03,11.823 c -0.699,2.795 -4.71,13.195 -8.59,23.252 -3.145,8.153 -6.115,15.853 -7.02,18.72 -1.751,5.547 -0.557,7.167 -0.544,7.183 l 0.072,0.091 c 4.537,6.51 21.914,6.697 23.88,6.697 z"
         id="path1651"
         style="stroke-width:0;stroke-miterlimit:4;stroke-dasharray:none" />
    </g>
    <g
       id="g1657"
       transform="matrix(0.13954225,0.05573332,-0.05573332,0.13954225,46.605847,27.772276)">
      <path
         d="m 64.532,53.896 c -1.38,-0.169 -2.869,-0.393 -4.476,-0.666 -8.616,-1.465 -5.363,0 -10.056,2.235 -4.693,2.235 -5.587,1.788 -12.291,-0.894 -0.745,-0.298 -1.491,-0.526 -2.23,-0.703 -2.979,7.724 -6.051,15.688 -6.928,18.466 -1.028,3.256 -0.849,4.717 -0.771,5.087 1.951,2.677 9.54,5.533 21.723,5.533 0.198,0 0.311,-10e-4 0.324,-0.002 0,0 0.448,0.002 0.449,0.002 12.332,0 19.992,-2.856 21.944,-5.533 0.079,-0.369 0.257,-1.83 -0.771,-5.087 C 70.572,69.56 67.508,61.613 64.532,53.896 Z"
         id="path1655" />
    </g>
  </g>
  <path
     id="path4146"
     style="fill:#000000;stroke-width:0.0131983"
     d="M 6.907593,47.908783 C 6.0883937,47.159194 5.8951237,45.989692 5.2816462,45.092229 4.4842449,43.541186 3.6736498,41.996946 2.8815437,40.443178 c 1.1441396,-0.203294 1.5967675,-1.338561 2.8784876,-0.870766 1.1931135,0.0051 2.3637688,-0.591559 3.5747992,-0.294114 1.1372475,0.16345 2.3068285,-0.549691 3.4699125,-0.175596 1.243811,-0.268324 1.968714,0.737807 2.132133,1.815582 0.663235,1.359171 1.321549,2.757811 2.22631,3.962695 0.224406,0.631993 0.671138,1.503893 -0.429576,1.342081 0.90833,-0.340174 1.807325,1.312375 0.393424,0.887876 -1.026479,0.01455 -2.801274,-0.283315 -3.360085,-0.173684 1.309239,0.431105 2.739053,0.16759 4.070369,0.292123 -1.941556,0.260573 -3.892423,-0.229369 -5.830185,-0.139339 -1.688357,0.336701 -3.4016813,0.525472 -5.09954,0.818747 z M 7.016426,47.79662 c 1.7294076,-0.38093 3.537255,-0.397246 5.236602,-0.885403 -0.670426,-0.105315 -1.732252,0.18626 -2.5388693,0.315958 -0.052336,0.06161 2.2630433,-0.35113 1.9212153,-0.233795 -1.435502,0.223875 -2.871031,0.511309 -4.3251426,0.547512 -0.1301301,0.0247 -0.2783127,0.107399 -0.2938054,0.255728 z M 6.819829,47.586591 C 5.7116064,45.296884 4.4772956,43.066518 3.4244994,40.752529 c -0.9082304,-0.705014 0.3054581,1.075242 0.4554803,1.479299 0.9400735,1.74455 1.7788127,3.551154 2.7659525,5.265346 l 0.078844,0.06046 z m 0.245458,-0.03705 C 7.0527015,47.184819 8.3053868,47.45881 7.2897519,47.298645 6.3025746,46.871778 6.2781292,45.561457 5.6453127,44.784928 4.9979729,43.521813 4.4171522,42.22594 3.7711253,40.962171 4.1082672,40.157702 2.8532259,40.109415 3.4945041,40.841167 c 1.0107475,1.945092 1.9281411,3.941989 2.9648909,5.8771 0.212403,0.205914 0.222143,0.883427 0.605892,0.831274 z m 2.167234,-0.226783 c -0.150523,-0.13906 -0.1676515,0.180621 0,0 z m -1.869404,-0.08171 c -0.5750225,-0.528978 -0.4449446,0.142354 0,0 z m 1.980894,-0.03185 c 0.5805612,-0.04972 2.562374,-0.718775 0.924459,-0.283202 -0.243283,0.0936 -0.8479164,0.102678 -0.924459,0.283202 z m -0.991851,-0.0015 c -0.156928,-0.169828 -0.2530185,0.206319 0,0 z m -0.07408,-0.08186 c 0.2607071,-0.200239 -1.1828955,0.124681 0,0 z m 0.482525,-0.02843 c 0.4826596,-0.01039 -0.1581562,-0.110029 0,0 z M 7.306012,47.067188 C 6.600689,45.877544 6.1484969,44.552173 5.3735,43.402108 5.2639089,42.85702 4.2590928,41.644511 4.9058344,42.797135 5.1844673,43.21982 5.6121979,44.463787 5.120505,43.368131 4.7026718,42.631761 4.1649635,41.187928 3.824296,40.869426 c 0.6815879,1.432108 1.3175754,2.894458 2.1136536,4.269062 -0.1688785,-0.461393 -0.4985113,-1.134948 -0.0119,-0.296235 0.2418314,0.493296 1.0620496,2.142159 0.4152803,0.706879 -0.2376674,-0.894641 0.4049831,0.971301 0.6200236,1.248378 l 0.1519205,0.152824 z M 6.011426,44.945313 c -0.5530788,-0.872919 -0.1664502,-0.777324 0,0 z m 1.596892,2.090442 c -0.2122535,-0.214014 -0.2481617,0.219028 0,0 z m 5.695193,-0.0013 c -0.073,-0.488927 -1.359049,0.148051 -0.211833,0.01787 z m 4.407087,-0.0079 c -0.274773,-0.463696 -2.562491,0.128746 -0.945189,0.009 0.315387,-0.0075 0.630288,0.01581 0.945189,-0.009 z M 6.858142,46.942333 c -0.273466,-0.856248 -0.5228858,-0.640721 0,0 z m 1.149538,0.0622 c -0.2231269,-0.09056 -0.3810754,0.08898 0,0 z m 0.680903,-0.01161 c 0.1860874,-0.166856 -0.4873607,0.202115 0,0 z m 0.242978,-0.03907 c -0.1491275,-0.194618 -0.1585252,0.120674 0,0 z m 6.812369,7.56e-4 c -0.581546,-0.135089 -0.738972,0.01014 -0.04506,7.31e-4 z m -8.438763,-0.04378 c 0.3827251,-0.35728 0.6695818,0.03988 0.1314962,-0.436398 C 7.2103764,45.843494 6.8024886,45.378231 7.2411078,46.289094 7.3177418,46.838937 6.5741173,44.878728 6.3086441,44.49378 5.8790077,43.641471 5.4226895,42.802566 4.938834,41.979808 5.0919388,42.694333 4.2422831,40.276151 4.1258573,40.523265 c 0.7129318,2.095477 2.0647895,3.905495 2.8856002,5.95703 l 0.1388403,0.229599 z m 4.149339,-0.01517 c 0.408133,-0.147264 -0.640821,0.109254 0,0 z m -3.76506,-0.01794 c -0.1127107,-0.179344 -0.1427658,0.128722 0,0 z m 1.708183,-0.0015 c -0.068671,-0.162857 -0.2443586,0.253908 0,0 z m 5.471812,0.0013 c -0.456872,-0.191423 -0.778206,0.104751 0,0 z m -6.416319,-0.02998 c 1.3765747,0.138876 3.341423,-1.107531 4.331742,-0.449413 -0.662054,0.705312 1.298747,0.02877 1.686851,0.256879 0.789723,-0.01884 2.20006,0.260436 2.638958,-0.06191 -1.125171,0.147457 -2.239144,-0.185494 -3.376053,-0.07679 -0.903087,-0.0098 1.010126,-0.147591 1.42496,-0.08086 0.438951,-0.02724 2.113844,0.212189 1.706315,-0.07817 -0.887368,-0.125034 -2.717111,-0.02849 -3.009199,-0.01232 0.724556,-0.304911 2.279486,0.04783 2.525756,-0.102094 -1.046604,-0.346917 -2.187324,-0.02913 -3.147756,0.03887 0.540688,-0.171088 1.015445,-0.201974 0.09287,-0.246372 1.003138,-0.576308 3.221014,0.263595 3.545077,-5.37e-4 1.036457,-0.404301 -0.76391,-0.04092 -1.117543,-0.143451 -1.097057,-0.07831 -1.359648,-0.362319 -2.274426,-0.216324 1.069489,-0.163489 2.121683,0.05278 3.203948,-0.15653 1.169494,-0.436641 -0.552802,-1.462226 -0.618551,-2.246639 -0.757544,-1.231394 -1.203519,-2.687234 -1.951421,-3.875687 -0.978399,-0.36899 -2.101659,-0.243643 -3.133687,-0.312915 -1.5916385,0.136514 -0.410735,1.588331 -0.04368,2.362194 0.58704,1.231297 1.232446,2.551963 1.770374,3.733374 -0.976722,-1.799993 -1.738897,-3.712076 -2.7443715,-5.498549 0.1664475,0.475297 1.1570115,2.484682 0.4512185,1.144881 -0.220558,-1.294764 -1.5418835,-1.906376 -2.7384997,-1.496024 -0.9354271,0.523963 -2.4996374,-0.122092 -3.105602,0.546253 0.5638661,2.017135 2.0851577,3.593601 2.7088817,5.587482 0.4688404,1.557611 2.3423708,0.892382 3.482075,0.664306 0.778978,-0.193421 2.582329,-0.232728 1.527933,-1.415539 -0.262737,-0.529943 -0.642203,-1.414033 -0.110864,-0.385801 0.279092,0.800034 0.644844,1.314651 0.899905,1.513008 -0.245238,0.306008 -1.007122,0.0896 -0.906855,0.289549 -1.285737,0.07829 -2.5200165,0.490886 -3.7937338,0.641478 l -0.026068,0.03657 0.1014464,0.04105 z m 4.495581,-0.256847 c -0.07821,-0.29509 0.408507,-0.245816 0,0 z m 0.362087,-0.106754 c 0.09571,-0.262026 0.353608,0.115253 0,0 z m 0.05871,-0.617393 c 0.514449,-0.223562 0.714801,-0.0565 0.04249,-0.0083 z m -0.874592,-0.34033 c -0.271236,-0.547359 -0.879445,-1.771689 -0.884913,-1.921795 0.304803,0.617547 0.681862,1.34754 0.884913,1.921795 z M 11.66633,43.419136 c -0.466611,-0.632106 0.02379,-0.376975 0,0 z m -0.347765,-0.301648 c -0.141981,-0.439353 -1.142809,-2.296723 -0.374297,-0.934077 0.144772,0.301232 0.310721,0.602532 0.374297,0.934077 z m 0.05053,-0.301687 c -0.254881,-0.462758 -0.670935,-1.523598 -0.178884,-0.500342 0.08152,0.156075 0.18631,0.315436 0.178884,0.500342 z m -1.041627,-1.731184 c -0.306587,-0.633794 -0.4698223,-1.173425 -0.04337,-0.240006 z m 0.913797,5.749368 c 0.792909,-0.07966 1.067102,-0.340493 0.142589,-0.08229 0.176052,-0.126833 -0.366387,0.132314 -0.142589,0.08229 z m -1.11361,-0.02938 c 0.655589,0.0838 1.03955,-0.429154 0.1809,-0.123504 -0.0039,-0.01312 -0.7040015,0.209956 -0.1809,0.123504 z m 3.213922,0.0079 c 0.08837,-0.189776 -0.194745,0.07882 0,0 z m 0.407479,-0.0074 c 0.798792,-0.07878 -0.1194,-0.185144 -0.243795,-0.0279 z m 2.976419,0.0067 c -0.170649,-0.175442 -0.303014,0.150747 0,0 z m -1.665456,-0.02214 c -0.62617,-0.185535 -0.94204,0.07105 0,0 z M 8.428367,46.691495 C 9.9367752,46.460826 7.4507396,46.86306 7.4715691,45.931623 6.7157989,44.231218 5.8472275,42.577997 4.8694439,40.993937 c -0.00561,-0.421924 -0.6622812,-1.74753 -0.344144,-0.655152 0.9869424,2.044288 2.179581,3.99557 2.964774,6.13413 0.1961831,0.314025 0.6273926,0.247416 0.9382931,0.21858 z m 9.168722,0.0056 c 0.0954,-0.320899 -0.30549,0.140983 0,0 z m -6.034353,-0.05098 c -0.0554,-0.229728 -0.351782,0.305516 0,0 z m -0.191172,-0.128674 c 0.479186,-0.01453 0.610124,-0.113906 0.58368,-0.199329 -0.06008,0.007 -0.964649,0.150192 -0.58368,0.199329 z m 1.09467,-0.0033 c -0.177228,-0.215783 -0.389254,0.200574 0,0 z m -4.004869,-0.0059 c -0.029937,-0.190073 -0.4335577,0.253975 0,0 z m 0.939334,-0.0501 c -0.2046724,-0.128129 -0.2403938,0.173777 0,0 z m 2.010632,-0.06711 c 0.447992,-0.103564 -0.473249,0.04645 0,0 z m 1.108521,-0.04777 c -0.184602,-0.24724 -0.491092,0.166658 0,0 z m 2.898117,-0.305625 c -0.611362,-0.347692 -2.267225,0.0012 -0.72669,-0.01499 0.242244,0.0042 0.484547,0.0063 0.72669,0.01499 z m 2.010016,-0.01834 c -0.122744,-0.118904 -0.138026,0.173737 0,0 z m -1.375022,-0.16344 c -0.245742,-0.201961 -0.416075,0.125523 0,0 z m -3.326886,-0.02242 c -0.105127,-0.163501 -0.186971,0.156539 0,0 z m 2.953128,-0.02408 c -0.199952,-0.166504 -0.353977,0.154696 0,0 z m 0.68024,-0.05572 c -0.108671,-0.145636 -0.2246,0.186244 0,0 z M 6.216981,45.514318 c -0.1113778,-0.343758 -0.171076,-0.0998 0,0 z m 0.612991,-0.123734 c 0.127462,-0.334753 -0.168958,0.0086 0,0 z m 0.06665,-0.08249 c -0.1010442,-0.703956 -0.71986,-1.054195 0,0 z M 6.354699,44.318218 c -0.1447758,-0.481645 -0.027139,0.316292 0,0 z m 0.0462,-0.211697 c -0.1303907,-0.515253 -0.3202494,-0.243585 0,0 z M 6.00751,43.575298 c 0.013866,-0.446737 -0.2128343,0.0098 0,0 z m 0.07503,-0.106721 c -0.055824,-0.455498 -0.1075506,0.08567 0,0 z m -0.275122,-0.26118 c -0.2578955,-0.626201 -0.4656757,-0.59594 0,0 z M 5.401012,42.191506 c -0.022205,-0.369535 -0.2706212,-0.152629 0,0 z M 5.150179,42.149256 C 5.2372609,41.651637 4.6541088,41.048824 4.9811881,41.732971 4.7810143,41.244605 3.9253045,39.661868 4.5687494,41.102833 4.722779,41.470846 4.8835905,41.846247 5.150179,42.149256 Z m -0.590562,-0.15392 c -0.068484,-0.309818 -0.2789544,-0.275687 0,0 z M 4.362209,41.59606 C 4.1917658,40.968129 3.7558617,40.523359 4.2425266,41.383821 Z M 4.011653,40.500787 c 0.036589,-0.34608 -0.1792692,0.09124 0,0 z m 0.43248,-0.07271 c 0.056565,-0.374386 -0.221114,-0.117472 0,0 z M 4.310174,40.013831 c -0.2662858,-0.21074 0.1136288,0.317764 0,0 z" />
  <g
     id="g1504">
    <circle
       style="fill:#aaeeff;stroke:#000000;stroke-width:0.79375;stroke-linecap:square;stroke-miterlimit:4;stroke-dasharray:none;stroke-dashoffset:0"
       id="path835"
       cx="31.631067"
       cy="5.6885414"
       r="5.2916665" />
    <path
       style="fill:#000000;stroke:none;stroke-width:0.0082088"
       d="m 29.198014,5.1785862 0.169876,-0.0102 c 0.14786,-0.220766 0.137794,-0.813507 1.181069,-0.837744 0.299366,2.505202 -0.761528,2.916599 -0.623918,3.420279 0.06406,0.287362 0.318625,0.434898 0.56921,0.411717 0.783376,-0.132999 0.605154,-1.18936 0.489944,-3.89696 l 1.015433,-0.136769 c 0.07299,0.950026 0.05253,1.912638 0.160386,2.83894 0.09525,0.61298 0.513217,0.890731 1.005918,0.828597 0.81349,-0.08208 0.941647,-1.061316 0.887387,-1.464169 l -0.174431,0.02349 c 0.02814,0.334488 -0.09959,0.594827 -0.438188,0.655231 -0.926539,0.137479 -0.637223,-1.575951 -0.816428,-2.953541 l 1.103489,-0.142273 -0.101059,-0.70311 c -4.586022,0.59509 -4.016406,0.42689 -4.428702,1.966519 z"
       id="path911" />
  </g>
  <g
     id="g2145">
    <circle
       style="fill:#c6afe9;stroke:#000000;stroke-width:0.79375;stroke-linecap:square;stroke-miterlimit:4;stroke-dasharray:none;stroke-dashoffset:0"
       id="path835-3-5"
       cx="80.589821"
       cy="65.935616"
       r="6.1504955" />
    <g
       id="g1542"
       transform="matrix(0.11287573,0,0,0.11287573,75.060739,60.081234)">
      <path
         fill="#000000"
         d="M 75.132,54.237 C 76.739,44.761 72.844,34.785 64.356,29.063 55.868,23.341 45.159,23.472 36.978,28.515 22.357,21.52 10.602,19.351 7.525,23.916 3.7,29.589 14.542,43.79 32.487,57.548 c 0.028,0.021 0.055,0.042 0.083,0.063 0.593,0.454 1.195,0.907 1.803,1.36 0.083,0.062 0.166,0.125 0.25,0.188 0.546,0.404 1.1,0.808 1.658,1.211 0.148,0.107 0.293,0.215 0.442,0.322 0.528,0.379 1.064,0.756 1.602,1.133 0.177,0.124 0.35,0.249 0.528,0.373 0.713,0.497 1.435,0.991 2.165,1.483 0.732,0.493 1.463,0.978 2.192,1.454 0.144,0.094 0.286,0.183 0.429,0.276 0.592,0.384 1.183,0.765 1.773,1.138 0.118,0.074 0.234,0.146 0.352,0.219 0.618,0.389 1.235,0.772 1.85,1.148 0.078,0.047 0.155,0.093 0.233,0.14 0.657,0.4 1.313,0.794 1.966,1.18 0.031,0.018 0.062,0.035 0.092,0.053 C 69.388,80.765 86.618,85.488 90.443,79.815 93.52,75.25 87.1,65.167 75.132,54.237 Z M 21.145,31.439 c 1.19,-1.766 5.329,-1.304 11.088,0.865 -1.063,1.085 -2.048,2.275 -2.928,3.581 -1.248,1.852 -2.209,3.81 -2.91,5.824 -4.374,-4.671 -6.468,-8.463 -5.25,-10.27 z m 57.214,38.573 c -1.218,1.807 -5.519,1.286 -11.488,-1.015 1.604,-1.405 3.059,-3.031 4.307,-4.883 0.88,-1.305 1.614,-2.664 2.221,-4.058 4.17,4.526 6.151,8.19 4.96,9.956 z"
         id="path1538" />
      <path
         fill="#000000"
         d="m 25.25,53.613 c 0.985,6.802 4.728,13.179 10.876,17.323 6.148,4.145 13.463,5.223 20.138,3.585 C 51.1,71.842 45.663,68.622 40.178,64.924 34.694,61.228 29.67,57.395 25.25,53.613 Z"
         id="path1540" />
    </g>
  </g>
  <g
     id="g2164">
    <circle
       style="fill:#ffd5d5;stroke:#000000;stroke-width:0.79375;stroke-linecap:square;stroke-miterlimit:4;stroke-dasharray:none;stroke-dashoffset:0"
       id="path835-3-7"
       cx="42.310429"
       cy="59.544964"
       r="4.9294815" />
    <text
       xml:space="preserve"
       style="font-size:1.99079px;line-height:1.25;font-family:'RobotoMono Nerd Font Mono';-inkscape-font-specification:'RobotoMono Nerd Font Mono';stroke-width:0.248849"
       x="38.175747"
       y="57.764141"
       id="text2149"><tspan
         sodipodi:role="line"
         x="38.175747"
         y="57.764141"
         style="font-weight:bold;font-size:1.99079px;stroke-width:0.248849"
         id="tspan2151">101010</tspan><tspan
         sodipodi:role="line"
         x="38.175747"
         y="60.252628"
         style="font-weight:bold;font-size:1.99079px;stroke-width:0.248849"
         id="tspan2155">101010</tspan><tspan
         sodipodi:role="line"
         x="38.175747"
         y="62.741116"
         style="font-weight:bold;font-size:1.99079px;stroke-width:0.248849"
         id="tspan2157">101010</tspan></text>
  </g>
</svg>
