<?xml version="1.0" encoding="UTF-8" standalone="no"?>
<svg
   xmlns:dc="http://purl.org/dc/elements/1.1/"
   xmlns:cc="http://creativecommons.org/ns#"
   xmlns:rdf="http://www.w3.org/1999/02/22-rdf-syntax-ns#"
   xmlns:svg="http://www.w3.org/2000/svg"
   xmlns="http://www.w3.org/2000/svg"
   xmlns:sodipodi="http://sodipodi.sourceforge.net/DTD/sodipodi-0.dtd"
   xmlns:inkscape="http://www.inkscape.org/namespaces/inkscape"
   version="1.1"
   id="svg2"
   width="400"
   height="400"
   viewBox="0 0 400 400"
   sodipodi:docname="placeholder.svg"
   inkscape:version="1.0.2 (e86c870879, 2021-01-15)">
  <metadata
     id="metadata8">
    <rdf:RDF>
      <cc:Work
         rdf:about="">
        <dc:format>image/svg+xml</dc:format>
        <dc:type
           rdf:resource="http://purl.org/dc/dcmitype/StillImage" />
        <dc:title></dc:title>
      </cc:Work>
    </rdf:RDF>
  </metadata>
  <defs
     id="defs6" />
  <sodipodi:namedview
     pagecolor="#ffffff"
     bordercolor="#666666"
     borderopacity="1"
     objecttolerance="10"
     gridtolerance="10"
     guidetolerance="10"
     inkscape:pageopacity="0"
     inkscape:pageshadow="2"
     inkscape:window-width="2556"
     inkscape:window-height="1403"
     id="namedview4"
     showgrid="true"
     inkscape:zoom="0.8585457"
     inkscape:cx="-230.78675"
     inkscape:cy="38.672332"
     inkscape:window-x="0"
     inkscape:window-y="0"
     inkscape:window-maximized="1"
     inkscape:current-layer="g10">
    <inkscape:grid
       type="xygrid"
       id="grid837"
       originx="-10.362027"
       originy="-8.8000008" />
  </sodipodi:namedview>
  <g
     inkscape:groupmode="layer"
     inkscape:label="Image"
     id="g10"
     transform="translate(-10.362027,-8.8000008)">
    <g
       id="g1368"
       transform="matrix(4.7782663,0,0,4.7782663,23.432753,3.0388306)">
      <path
         style="fill:#000000;stroke-width:0.32"
         d="m 22.20986,76.860072 c -0.19537,-0.235398 -0.38836,-2.089603 -0.43919,-4.219622 -0.0907,-3.799696 -0.0907,-3.799696 -1.56508,-4.175287 -4.73702,-1.206713 -8.54957,-5.188227 -9.5832,-10.0079 -0.22055,-1.028368 -0.30468,-6.320189 -0.2382,-14.983568 0.10092,-13.15351 0.116,-13.425014 0.84081,-15.14014 1.09796,-2.598132 2.73314,-4.625807 4.8941,-6.06884 2.21151,-1.47679 3.4706,-1.911615 6.2809,-2.169096 2,-0.183242 2,-0.183242 2.00178,-3.57943 0.002,-4.197825 0.33692,-5.465343 1.77713,-6.7298632 1.12336,-0.986325 1.12336,-0.986325 12.95692,-0.986325 11.83357,0 11.83357,0 12.965781,1.04 1.398441,1.2845432 1.720656,2.5567512 1.730752,6.8335872 0.0076,3.233588 0.0076,3.233588 2.277686,3.423901 5.660825,0.474584 10.457798,4.876715 11.506003,10.558939 0.219027,1.187332 0.306681,6.614365 0.2432,15.057501 -0.09925,13.201075 -0.09925,13.201075 -1.302192,15.634147 -1.82881,3.698966 -4.790726,6.17342 -8.557062,7.148771 -1.44,0.372908 -1.44,0.372908 -1.530675,4.158105 -0.05077,2.119491 -0.244039,3.969987 -0.439181,4.20512 -0.51312,0.618272 -33.307172,0.618272 -33.820282,0 z m 33.21888,-0.839037 c 0.182192,-0.340429 0.331258,-2.281686 0.331258,-4.313904 0,-3.69494 0,-3.69494 0.88,-3.883228 4.733436,-1.012794 8.282467,-4.110423 9.670233,-8.440279 0.648384,-2.022969 0.670698,-2.618943 0.582,-15.543625 C 66.801571,30.629225 66.787332,30.368636 66.057405,28.561068 64.47386,24.639622 60.247092,21.428419 56.213476,21.082338 52.57243,20.769939 52.880068,21.173031 52.879502,16.713903 52.878923,12.168609 52.458756,10.90907 50.64,10.000498 49.64267,9.5022788 48.38086,9.4409948 39.12,9.4409948 c -9.26086,0 -10.52268,0.06128 -11.52,0.5595032 -1.81876,0.908572 -2.23893,2.168111 -2.2395,6.713405 -5.8e-4,4.45731 0.26875,4.098922 -3.2567,4.333801 -3.95028,0.263184 -8.33408,3.583052 -9.92121,7.513364 -0.72993,1.807575 -0.74413,2.067485 -0.83277,15.242016 -0.0778,11.56071 -0.0192,13.650089 0.42602,15.2 1.25364,4.363996 4.6228,7.54159 9.22494,8.700422 1.47922,0.37247 1.47922,0.37247 1.47922,4.151625 0,3.008928 0.10249,3.881639 0.50286,4.28201 0.44356,0.443568 2.36642,0.502857 16.30874,0.502857 15.299303,0 15.816497,-0.01984 16.13714,-0.618963 z M 24.784,74.335998 c -0.55875,-0.558745 -0.51497,-5.508937 0.0529,-5.980214 0.31426,-0.260816 4.37815,-0.339171 14.48,-0.279181 l 14.043118,0.0834 0.09271,3.013257 c 0.06753,2.194934 -0.01936,3.084368 -0.32,3.275101 -0.700871,0.444662 -27.899488,0.336861 -28.348708,-0.112359 z m 28.095998,-2.976 V 68.959999 H 39.12 25.36 v 2.399999 2.4 H 39.12 52.879998 Z M 20.36682,65.631407 c -1.88808,-0.598464 -4.12114,-2.23528 -5.21139,-3.819914 -1.96131,-2.850668 -1.99819,-3.201273 -1.8919,-17.989238 0.0936,-13.024297 0.11722,-13.467177 0.79629,-14.937315 1.02114,-2.210691 3.44771,-4.494701 5.6511,-5.319094 1.79125,-0.670191 2.22957,-0.685846 19.203,-0.685846 19.471537,0 19.405764,-0.0066 22.238343,2.232423 1.144445,0.904632 1.894989,1.871352 2.660906,3.427314 1.066829,2.167271 1.066829,2.167271 1.066829,15.933766 0,13.562253 -0.01059,13.789424 -0.713261,15.311936 -1.109693,2.404403 -2.441997,3.854643 -4.632166,5.042208 -2.014573,1.092352 -2.014573,1.092352 -19.934571,1.156176 -13.96676,0.04974 -18.2097,-0.028 -19.23318,-0.352416 z m 36.291565,-0.656419 c 3.254697,-0.861309 5.028157,-2.2401 6.556909,-5.097719 0.690179,-1.290121 0.70662,-1.599689 0.797721,-15.020076 0.09301,-13.702809 0.09301,-13.702809 -0.738093,-15.52 -0.9643,-2.108416 -2.04055,-3.336397 -3.834924,-4.375584 C 57.00891,23.553681 55.67218,23.467346 38,23.576871 c -16.52927,0.102442 -16.64965,0.107935 -18.08983,0.825383 -2.33906,1.165245 -3.73467,2.525213 -4.78886,4.666581 -0.98757,2.006051 -0.98757,2.006051 -0.89444,15.748608 0.0931,13.742556 0.0931,13.742556 1.03839,15.449026 1.49064,2.691024 3.96138,4.396583 7.04799,4.865239 2.8299,0.429683 32.64333,0.293641 34.345135,-0.15672 z M 34.15643,56.691285 c -4.61288,-1.715507 -7.36304,-4.798963 -5.73357,-6.428428 0.83676,-0.836765 1.92615,-0.582576 3.55768,0.830125 2.34961,2.034467 3.96495,2.649907 6.97946,2.659161 3.17702,0.0098 5.08321,-0.672137 7.24422,-2.591421 1.67081,-1.483916 2.75695,-1.75384 3.61292,-0.897865 0.6818,0.681798 0.63261,1.805872 -0.12093,2.763856 -0.97104,1.234467 -3.825,3.054518 -5.90631,3.766611 -2.68166,0.917497 -7.01544,0.871593 -9.63347,-0.102039 z m 7.83004,-0.235657 c 2.61404,-0.602394 6.59795,-3.006445 7.36867,-4.446547 0.22464,-0.419741 0.15017,-0.707981 -0.28455,-1.101399 -0.55625,-0.503392 -0.68294,-0.452531 -2.29013,0.919338 -4.48089,3.824816 -10.82718,3.835789 -15.28995,0.02643 -1.65194,-1.410074 -2.37735,-1.562643 -2.75466,-0.579366 -0.12902,0.336204 0.29948,0.963824 1.28394,1.880598 3.16961,2.951677 7.86358,4.24648 11.96668,3.300934 z M 28.79999,43.014364 c -0.308,-0.179395 -0.78875,-0.768512 -1.06832,-1.309142 -1.60356,-3.100954 2.28593,-6.170042 4.96378,-3.916778 0.85566,0.719994 0.98455,1.03618 0.98455,2.41528 0,1.304931 -0.15042,1.72624 -0.84673,2.371555 -0.91124,0.844509 -2.95517,1.067024 -4.03328,0.439085 z m 3.25546,-1.122809 c 1.20579,-1.014605 1.27429,-2.110903 0.19909,-3.186099 -1.06887,-1.068874 -2.48432,-1.044506 -3.35132,0.0577 -1.0785,1.371091 -0.78338,2.733987 0.77678,3.587331 0.94943,0.519296 1.29141,0.453225 2.37545,-0.458932 z m 13.35127,0.683724 C 44.71042,41.929964 44.56,41.508655 44.56,40.203724 c 0,-1.3791 0.12889,-1.695286 0.98455,-2.41528 1.72236,-1.449273 4.3244,-0.776444 5.12328,1.324765 0.42615,1.120845 -0.17895,3.102528 -1.13952,3.731917 -1.20378,0.788745 -3.11432,0.663661 -4.12159,-0.269847 z m 3.09431,-0.227548 c 1.59394,-0.848938 1.91258,-2.2156 0.83574,-3.584576 C 48.85575,38.151625 48.37863,37.92 47.6,37.92 c -0.77863,0 -1.25575,0.231625 -1.73678,0.843155 -1.05959,1.347056 -0.76872,2.684 0.77678,3.570342 0.81428,0.466989 1.00817,0.46847 1.86103,0.01424 z M 27.58361,20.496 c -0.50728,-0.507924 -0.37918,-7.630253 0.15026,-8.354838 0.42983,-0.588249 0.98511,-0.626298 10.48,-0.718114 5.51437,-0.05332 10.48149,-0.01317 11.03804,0.08923 0.76828,0.141358 1.09572,0.426591 1.36,1.184704 0.50163,1.438977 0.46051,7.603826 -0.0519,7.782853 -0.84953,0.296802 -22.68077,0.31216 -22.97639,0.01616 z M 50,16.354237 c 0,-3.029263 -0.0856,-3.678609 -0.50617,-3.84 -0.2784,-0.10683 -5.0016,-0.194237 -10.496,-0.194237 -7.3432,0 -10.09157,0.101735 -10.37383,0.384 -0.25126,0.25126 -0.384,1.578667 -0.384,3.84 V 20 H 39.12 50 Z"
         id="path1241" />
      <path
         style="fill:#000000;stroke:#000000;stroke-width:0.462599;stroke-opacity:0.894118"
         d="m 25.826762,76.463324 c -2.576603,-0.106119 -2.847994,-0.196505 -3.063886,-1.020408 -0.07149,-0.272809 -0.178145,-1.966719 -0.23702,-3.764246 -0.126164,-3.851957 -0.02567,-3.62336 -1.821694,-4.144045 -4.32327,-1.253359 -7.356215,-4.090697 -8.722088,-8.159562 -0.230787,-0.6875 -0.36831,-1.503342 -0.463287,-2.7484 -0.279134,-3.659154 -0.06769,-25.035765 0.26265,-26.553854 0.210515,-0.967423 1.044867,-2.74026 1.763153,-3.746361 0.710051,-0.994566 2.397021,-2.621054 3.420046,-3.297429 1.014954,-0.67104 2.50293,-1.361651 3.47256,-1.611713 0.436184,-0.112489 1.506449,-0.266771 2.378366,-0.34285 0.871917,-0.07608 1.732631,-0.208969 1.912698,-0.295313 0.578157,-0.277232 0.661443,-0.652951 0.664756,-2.998795 0.0064,-4.548079 0.327175,-6.175573 1.403902,-7.123346 0.950857,-0.8369787 1.433852,-0.9434488 4.875323,-1.0747063 6.166804,-0.2352016 17.18945,-0.07766 18.329951,0.2619819 0.779903,0.2322554 1.72966,0.9461864 2.06169,1.5497694 0.516916,0.939678 0.684945,2.127131 0.697945,4.932354 0.01402,3.025539 0.109631,3.876687 0.476705,4.243761 0.266259,0.266259 0.367929,0.286454 3.239381,0.643458 1.31381,0.163344 2.296023,0.473846 3.610045,1.141226 3.195244,1.622834 5.87974,4.949134 6.411245,7.944029 0.178734,1.007122 0.443158,18.534852 0.348535,23.103174 -0.0471,2.273768 -0.143761,3.933446 -0.266391,4.573725 -0.722433,3.771994 -3.383097,7.112264 -6.987749,8.77261 -0.864818,0.398344 -2.212315,0.846087 -3.167399,1.052454 -0.197819,0.04274 -0.431404,0.21084 -0.519077,0.373552 -0.104024,0.193059 -0.195381,1.489763 -0.26296,3.732439 -0.05696,1.890131 -0.142918,3.601974 -0.191028,3.804095 -0.04811,0.202121 -0.212337,0.434319 -0.364951,0.515995 -0.152614,0.08168 -1.230839,0.195802 -2.396056,0.253612 -2.570047,0.12751 -23.679925,0.113988 -26.865365,-0.01721 z m 27.223673,-1.899111 c 0.434498,-0.202462 0.535912,-1.055855 0.448,-3.769901 -0.04572,-1.411555 -0.117805,-2.601148 -0.160183,-2.64354 -0.04238,-0.04239 -6.36208,-0.07708 -14.04378,-0.07708 -10.41692,0 -14.054717,0.03949 -14.312922,0.155375 -0.440316,0.197618 -0.50223,0.475757 -0.598005,2.68643 -0.0751,1.733477 0.06805,3.208121 0.337598,3.477667 0.06566,0.06566 1.329387,0.165352 2.808271,0.221527 3.487804,0.132483 25.220624,0.08949 25.521021,-0.05048 z m 0.959719,-8.66706 c 3.550464,-0.14388 4.427905,-0.320109 5.850319,-1.175004 1.919936,-1.153915 3.03924,-2.329604 4.060518,-4.265067 0.975122,-1.84799 0.927677,-1.047759 0.927677,-15.646538 0,-10.538949 -0.03538,-13.277364 -0.181801,-14.071297 -0.242669,-1.31582 -1.369196,-3.535728 -2.336938,-4.605118 -0.853927,-0.943621 -2.2724,-2.023257 -3.155694,-2.401881 -1.911688,-0.819446 -5.940043,-0.972565 -23.470595,-0.892129 -14.104961,0.06472 -14.542465,0.08324 -16.015203,0.678109 -2.356508,0.951837 -4.75293,3.213788 -5.718883,5.397978 -0.601718,1.36059 -0.630911,1.974716 -0.698609,14.696405 -0.06698,12.586602 -0.02108,14.05187 0.491946,15.703816 0.677748,2.182361 2.637502,4.399603 5.03137,5.692433 1.158722,0.625779 1.667,0.768008 3.147733,0.880817 1.843131,0.140417 28.633486,0.146663 32.06816,0.0075 z M 49.956378,20.597142 c 0.601921,-0.06833 0.72362,-0.130015 0.835139,-0.423334 0.20953,-0.551105 0.291501,-4.300926 0.128665,-5.885846 -0.170833,-1.662759 -0.416643,-2.269534 -1.073604,-2.650165 -0.453873,-0.262966 -0.63753,-0.26757 -9.715009,-0.243522 -9.62708,0.0255 -11.798618,0.117086 -12.239624,0.51619 -0.484367,0.438346 -0.570088,1.158501 -0.575936,4.838601 -0.0043,2.72222 0.03361,3.568169 0.165961,3.700956 0.12689,0.127304 1.021862,0.193661 3.436602,0.254802 3.715419,0.09407 17.970757,0.01344 19.037806,-0.107682 z"
         id="path1253" />
      <path
         style="fill:#000000;stroke:#000000;stroke-width:0.462599;stroke-opacity:0.894118"
         d="m 46.870639,42.351349 c -1.683572,-0.889408 -2.005817,-2.350447 -0.808688,-3.66655 0.83576,-0.91882 2.239477,-0.91882 3.075237,0 0.757067,0.832307 0.918455,1.876342 0.407561,2.636552 -0.308105,0.458461 -1.569104,1.308273 -1.94129,1.308273 -0.113338,0 -0.443108,-0.125224 -0.73282,-0.278275 z"
         id="path1255" />
      <path
         style="fill:#000000;stroke:#000000;stroke-width:0.462599;stroke-opacity:0.894118"
         d="m 29.789202,42.292484 c -1.207809,-0.60423 -1.699851,-1.580334 -1.310349,-2.599448 0.780743,-2.042779 2.88491,-2.22983 4.151671,-0.369065 0.56653,0.832183 0.23969,1.834727 -0.875365,2.685079 -0.859395,0.655383 -1.141237,0.696016 -1.965957,0.283434 z"
         id="path1257" />
      <path
         style="fill:#000000;stroke:#000000;stroke-width:0.462599;stroke-opacity:0.894118"
         d="m 37.337796,57.293188 c -4.96828,-0.48154 -10.284972,-4.313455 -9.11743,-6.571232 0.29416,-0.568843 0.7077,-0.822597 1.340576,-0.822597 0.623363,0 1.190214,0.32536 2.840887,1.63061 1.913016,1.512694 3.114166,2.01765 5.244684,2.204834 2.593233,0.227837 5.139979,-0.195969 6.711316,-1.116834 0.327793,-0.192098 1.11693,-0.769634 1.753642,-1.283412 1.393854,-1.124737 1.969753,-1.435198 2.662258,-1.435198 0.407262,0 0.613177,0.08937 0.92548,0.401674 1.194906,1.194905 0.309568,2.826482 -2.542518,4.685566 -2.175823,1.418272 -4.005224,2.082157 -6.371595,2.312232 -1.477941,0.143696 -1.913863,0.142982 -3.4473,-0.0056 z m 5.371225,-0.980335 c 2.697766,-0.875838 6.10039,-3.040472 6.671627,-4.244266 0.268644,-0.566125 0.151661,-0.965212 -0.386239,-1.317658 -0.470803,-0.308483 -0.814338,-0.182261 -1.870707,0.687339 -2.773693,2.283294 -5.044893,3.161243 -8.115637,3.137159 -2.79752,-0.02194 -4.753136,-0.745482 -7.401912,-2.738564 -1.644731,-1.237584 -2.213064,-1.467929 -2.648827,-1.07357 -0.499924,0.452426 -0.346376,1.015716 0.533179,1.955963 1.46632,1.5675 4.036722,3.054907 6.279223,3.633578 1.50038,0.387169 1.629407,0.399289 3.833133,0.360061 1.747354,-0.03111 2.115993,-0.07858 3.10616,-0.400042 z"
         id="path1259" />
      <path
         style="fill:#ffcc00;stroke:#000000;stroke-width:0.462599;stroke-opacity:0.894118"
         d="m 26.186896,65.233614 c -3.175398,-0.08935 -3.933121,-0.14969 -4.824461,-0.384203 -2.667135,-0.701726 -4.55515,-2.155109 -6.005148,-4.622725 -0.707491,-1.204012 -0.805466,-1.836611 -0.948454,-6.123916 -0.180655,-5.416675 -0.08636,-22.57763 0.128404,-23.369076 0.272274,-1.003368 1.226317,-2.757343 2.002482,-3.681491 0.850593,-1.012766 2.709881,-2.339493 3.905488,-2.786827 1.19289,-0.446318 3.103403,-0.514246 17.224425,-0.612416 18.178973,-0.126382 19.676176,-0.01363 22.185172,1.670804 1.420375,0.953577 2.341632,2.046093 3.200313,3.795247 0.90901,1.851674 0.871135,1.202137 0.841751,14.435852 -0.01471,6.625041 -0.08628,12.699169 -0.160405,13.614231 -0.123752,1.527639 -0.173445,1.731939 -0.659069,2.709628 -1.208038,2.432099 -3.061556,3.98187 -5.75668,4.813298 -0.74384,0.229471 -1.474776,0.307038 -3.833133,0.406775 -4.045992,0.171108 -22.731564,0.263384 -27.300685,0.134819 z m 16.438648,-7.930839 c 2.194705,-0.489014 4.700489,-1.816839 6.430798,-3.407707 1.351107,-1.242225 1.729153,-2.246345 1.23656,-3.284407 -0.296761,-0.625379 -0.833617,-0.975656 -1.495345,-0.975656 -0.798533,0 -1.293386,0.254316 -3.017951,1.550992 -2.471517,1.858299 -3.530021,2.207584 -6.705453,2.212667 -3.156171,0.005 -4.039406,-0.295061 -6.674938,-2.268071 -1.72101,-1.288381 -2.129985,-1.495588 -2.951912,-1.495588 -0.956648,0 -1.674283,0.772455 -1.674283,1.802183 0,1.998114 3.516185,4.734445 7.36337,5.730245 0.59673,0.154459 1.459185,0.333737 1.916567,0.398398 1.259287,0.178028 4.220309,0.03825 5.572587,-0.263056 z M 31.716202,43.218746 c 0.795244,-0.236162 1.570066,-0.861976 1.826206,-1.475007 0.243062,-0.581731 0.23578,-2.585402 -0.01113,-3.062878 -0.285572,-0.552234 -1.147323,-1.271802 -1.839835,-1.536276 -1.849832,-0.706457 -4.036836,0.628576 -4.376206,2.671407 -0.197112,1.186505 0.665211,2.88464 1.704554,3.356703 0.663529,0.301372 1.772859,0.320318 2.696413,0.04605 z m 17.568476,-0.175398 c 0.686374,-0.35048 1.145338,-1.018754 1.415242,-2.060663 0.244573,-0.944124 0.250135,-1.142634 0.05067,-1.808374 -0.340161,-1.135357 -1.528012,-2.056846 -2.823783,-2.190581 -1.189346,-0.122752 -2.683876,0.610189 -3.173027,1.556101 -0.222676,0.430607 -0.272508,2.677253 -0.07113,3.206913 0.199049,0.523537 1.065364,1.269696 1.717369,1.479171 0.831441,0.267125 2.169881,0.182416 2.884656,-0.182567 z"
         id="path1261" />
      <path
         style="fill:#000000;stroke:#000000;stroke-width:0.462599;stroke-opacity:0.894118"
         d="m 35.853387,56.050324 c -1.236304,-0.354448 -2.906083,-1.118415 -4.065423,-1.860035 -1.215834,-0.77776 -2.825351,-2.422434 -2.825351,-2.887067 0,-0.03477 0.09283,-0.156044 0.206296,-0.269507 0.186943,-0.186944 0.258241,-0.179809 0.760018,0.07605 0.304547,0.155292 0.970079,0.589991 1.47896,0.965998 2.847894,2.104276 4.616611,2.738303 7.666266,2.748106 3.045518,0.0098 4.931753,-0.660491 7.717214,-2.74234 0.827692,-0.618616 1.589967,-1.124756 1.693946,-1.124756 0.378424,0 0.70038,0.276916 0.70038,0.6024 0,0.73638 -1.965928,2.306674 -4.427929,3.536829 -2.240884,1.119673 -2.59481,1.201562 -5.353168,1.238577 -2.242102,0.03009 -2.537165,0.0065 -3.551209,-0.284257 z"
         id="path1263" />
      <path
         style="fill:#ffcc00;stroke:#000000;stroke-width:0.462599;stroke-opacity:0.894118"
         d="m 28.325898,16.689888 c 0.06644,-3.7589 0.106908,-3.92017 1.033276,-4.118177 0.699328,-0.149479 19.315027,-0.187801 19.855749,-0.04087 0.620386,0.168572 0.671079,0.445236 0.737721,4.026194 l 0.06212,3.33815 H 39.142004 28.26924 Z"
         id="path1265" />
      <path
         style="fill:#ffcc00;stroke:#000000;stroke-width:0.462599;stroke-opacity:0.894118"
         d="m 25.393834,71.378121 v -2.313098 h 13.680319 13.680319 v 2.313098 2.313097 H 39.074153 25.393834 Z"
         id="path1267" />
    </g>
  </g>
</svg>
